# MagicaVoxel @ Ephtracy

# group
g car1

# material
mtllib car1.mtl
usemtl palette

# normals
vn -1 0 0
vn 1 0 0
vn 0 0 1
vn 0 0 -1
vn 0 -1 0
vn 0 1 0

# texcoords
vt 0.201172 0.5
vt 0.814453 0.5
vt 0.853516 0.5
vt 0.912109 0.5
vt 0.916016 0.5
vt 0.970703 0.5
vt 0.986328 0.5
vt 0.990234 0.5
vt 0.994141 0.5

# verts
v -5 11 3
v -5 11 2
v -5 11 1
v -5 13 3
v -5 13 2
v -5 13 1
v -3 5 13
v -3 5 -12
v -3 6 13
v -3 6 12
v -3 6 3
v -3 6 2
v -3 6 -4
v -3 6 -5
v -3 6 -10
v -3 6 -11
v -3 6 -12
v -3 9 13
v -3 9 12
v -3 9 3
v -3 10 12
v -3 10 11
v -3 10 4
v -3 10 -2
v -3 10 -4
v -3 10 -8
v -3 10 -10
v -3 11 13
v -3 11 11
v -3 11 3
v -3 11 2
v -3 11 1
v -3 11 -2
v -3 11 -4
v -3 11 -5
v -3 11 -8
v -3 11 -10
v -3 12 4
v -3 12 3
v -3 12 1
v -3 12 -4
v -3 12 -5
v -3 12 -10
v -3 13 3
v -3 13 2
v -3 13 1
v -3 18 2
v -3 18 -4
v -3 18 -5
v -3 18 -10
v -3 19 3
v -3 19 -11
v -2 0 8
v -2 0 5
v -2 0 -5
v -2 0 -8
v -2 1 9
v -2 1 8
v -2 1 5
v -2 1 4
v -2 1 -4
v -2 1 -5
v -2 1 -8
v -2 1 -9
v -2 2 10
v -2 2 9
v -2 2 4
v -2 2 3
v -2 2 -3
v -2 2 -4
v -2 2 -9
v -2 2 -10
v -2 3 7
v -2 3 6
v -2 3 -6
v -2 3 -7
v -2 4 7
v -2 4 6
v -2 4 -6
v -2 4 -7
v -2 5 10
v -2 5 3
v -2 5 -3
v -2 5 -10
v -2 6 13
v -2 6 12
v -2 6 -11
v -2 6 -12
v -2 9 13
v -2 9 12
v -2 9 -11
v -2 9 -12
v -2 10 11
v -2 10 4
v -2 11 11
v -2 11 4
v -2 11 -11
v -2 11 -12
v -2 19 -11
v -2 19 -12
v 5 4 -10
v 5 4 -12
v 5 5 -10
v 5 5 -11
v 5 5 -12
v 6 0 8
v 6 0 5
v 6 0 -5
v 6 0 -8
v 6 1 9
v 6 1 8
v 6 1 5
v 6 1 4
v 6 1 -4
v 6 1 -5
v 6 1 -8
v 6 1 -9
v 6 2 10
v 6 2 9
v 6 2 4
v 6 2 3
v 6 2 -3
v 6 2 -4
v 6 2 -9
v 6 2 -10
v 6 3 7
v 6 3 6
v 6 3 -6
v 6 3 -7
v 6 4 7
v 6 4 6
v 6 4 -6
v 6 4 -7
v 6 4 -10
v 6 5 10
v 6 5 3
v 6 5 -3
v 6 5 -4
v 6 5 -5
v 6 5 -10
v 0 0 8
v 0 0 5
v 0 0 -5
v 0 0 -8
v 0 1 9
v 0 1 8
v 0 1 5
v 0 1 4
v 0 1 -4
v 0 1 -5
v 0 1 -8
v 0 1 -9
v 0 2 10
v 0 2 9
v 0 2 4
v 0 2 3
v 0 2 -3
v 0 2 -4
v 0 2 -9
v 0 2 -10
v 0 3 7
v 0 3 6
v 0 3 -6
v 0 3 -7
v 0 4 7
v 0 4 6
v 0 4 -6
v 0 4 -7
v 0 5 10
v 0 5 3
v 0 5 -3
v 0 5 -4
v 0 5 -5
v 0 5 -10
v 6 4 -10
v 6 4 -12
v 6 5 -10
v 6 5 -11
v 6 5 -12
v 8 0 8
v 8 0 5
v 8 0 -5
v 8 0 -8
v 8 1 9
v 8 1 8
v 8 1 5
v 8 1 4
v 8 1 -4
v 8 1 -5
v 8 1 -8
v 8 1 -9
v 8 2 10
v 8 2 9
v 8 2 4
v 8 2 3
v 8 2 -3
v 8 2 -4
v 8 2 -9
v 8 2 -10
v 8 3 7
v 8 3 6
v 8 3 -6
v 8 3 -7
v 8 4 7
v 8 4 6
v 8 4 -6
v 8 4 -7
v 8 5 10
v 8 5 3
v 8 5 -3
v 8 5 -10
v 8 6 13
v 8 6 12
v 8 6 -11
v 8 6 -12
v 8 9 13
v 8 9 12
v 8 9 -11
v 8 9 -12
v 8 10 11
v 8 10 4
v 8 11 11
v 8 11 4
v 8 11 -11
v 8 11 -12
v 8 19 -11
v 8 19 -12
v 9 5 13
v 9 5 -12
v 9 6 13
v 9 6 12
v 9 6 4
v 9 6 3
v 9 6 -4
v 9 6 -5
v 9 6 -10
v 9 6 -11
v 9 6 -12
v 9 9 13
v 9 9 12
v 9 9 11
v 9 9 4
v 9 10 11
v 9 10 4
v 9 10 -2
v 9 10 -4
v 9 10 -8
v 9 10 -10
v 9 11 13
v 9 11 11
v 9 11 3
v 9 11 2
v 9 11 1
v 9 11 -2
v 9 11 -4
v 9 11 -5
v 9 11 -8
v 9 11 -10
v 9 12 4
v 9 12 3
v 9 12 1
v 9 12 -4
v 9 12 -5
v 9 12 -10
v 9 13 3
v 9 13 2
v 9 13 1
v 9 18 2
v 9 18 -4
v 9 18 -5
v 9 18 -10
v 9 19 3
v 9 19 -11
v 11 11 3
v 11 11 2
v 11 11 1
v 11 13 3
v 11 13 2
v 11 13 1
v -3 5 13
v -3 6 13
v -3 9 13
v -3 11 13
v -2 6 13
v -2 9 13
v -2 10 13
v -1 10 13
v -1 11 13
v 1 5 13
v 1 6 13
v 5 5 13
v 5 6 13
v 7 10 13
v 7 11 13
v 8 6 13
v 8 9 13
v 8 10 13
v 9 5 13
v 9 6 13
v 9 9 13
v 9 11 13
v -3 6 12
v -3 9 12
v -2 6 12
v -2 9 12
v 8 6 12
v 8 9 12
v 9 6 12
v 9 9 12
v -2 2 10
v -2 5 10
v -1 5 10
v 0 2 10
v 0 5 10
v 6 2 10
v 6 5 10
v 7 5 10
v 8 2 10
v 8 5 10
v -2 1 9
v -2 2 9
v 0 1 9
v 0 2 9
v 6 1 9
v 6 2 9
v 8 1 9
v 8 2 9
v -2 0 8
v -2 1 8
v 0 0 8
v 0 1 8
v 6 0 8
v 6 1 8
v 8 0 8
v 8 1 8
v -3 10 4
v -3 12 4
v -2 10 4
v -2 11 4
v -1 11 4
v -1 12 4
v 7 11 4
v 7 12 4
v 8 10 4
v 8 11 4
v 9 10 4
v 9 12 4
v -5 11 3
v -5 13 3
v -3 11 3
v -3 12 3
v -3 13 3
v -3 19 3
v -2 12 3
v -2 18 3
v -1 12 3
v 7 12 3
v 8 12 3
v 8 18 3
v 9 11 3
v 9 12 3
v 9 13 3
v 9 19 3
v 11 11 3
v 11 13 3
v -2 2 -3
v -2 5 -3
v 0 2 -3
v 0 5 -3
v 6 2 -3
v 6 5 -3
v 8 2 -3
v 8 5 -3
v -2 1 -4
v -2 2 -4
v 0 1 -4
v 0 2 -4
v 6 1 -4
v 6 2 -4
v 8 1 -4
v 8 2 -4
v -2 0 -5
v -2 1 -5
v 0 0 -5
v 0 1 -5
v 6 0 -5
v 6 1 -5
v 8 0 -5
v 8 1 -5
v 5 4 -10
v 5 5 -10
v 6 4 -10
v 6 5 -10
v -3 10 11
v -3 11 11
v -2 10 11
v -2 11 11
v 8 10 11
v 8 11 11
v 9 10 11
v 9 11 11
v -2 0 5
v -2 1 5
v 0 0 5
v 0 1 5
v 6 0 5
v 6 1 5
v 8 0 5
v 8 1 5
v -2 1 4
v -2 2 4
v 0 1 4
v 0 2 4
v 6 1 4
v 6 2 4
v 8 1 4
v 8 2 4
v -2 2 3
v -2 5 3
v -1 5 3
v 0 2 3
v 0 5 3
v 6 2 3
v 6 5 3
v 8 2 3
v 8 5 3
v -5 11 1
v -5 13 1
v -3 11 1
v -3 12 1
v -3 13 1
v 9 11 1
v 9 12 1
v 9 13 1
v 11 11 1
v 11 13 1
v -2 0 -8
v -2 1 -8
v 0 0 -8
v 0 1 -8
v 6 0 -8
v 6 1 -8
v 8 0 -8
v 8 1 -8
v -2 1 -9
v -2 2 -9
v 0 1 -9
v 0 2 -9
v 6 1 -9
v 6 2 -9
v 8 1 -9
v 8 2 -9
v -2 2 -10
v -2 5 -10
v -1 5 -10
v 0 2 -10
v 0 5 -10
v 6 2 -10
v 6 4 -10
v 6 5 -10
v 8 2 -10
v 8 5 -10
v -3 6 -11
v -3 19 -11
v -2 6 -11
v -2 9 -11
v -2 11 -11
v -2 19 -11
v 8 6 -11
v 8 9 -11
v 8 11 -11
v 8 19 -11
v 9 6 -11
v 9 19 -11
v -3 5 -12
v -3 6 -12
v -2 6 -12
v -2 9 -12
v -2 11 -12
v -2 19 -12
v -1 6 -12
v -1 9 -12
v -1 11 -12
v -1 12 -12
v -1 18 -12
v 1 6 -12
v 1 7 -12
v 2 10 -12
v 2 11 -12
v 4 10 -12
v 4 11 -12
v 5 4 -12
v 5 5 -12
v 5 6 -12
v 5 7 -12
v 6 4 -12
v 6 5 -12
v 7 6 -12
v 7 9 -12
v 7 11 -12
v 7 12 -12
v 7 18 -12
v 8 6 -12
v 8 9 -12
v 8 11 -12
v 8 19 -12
v 9 5 -12
v 9 6 -12
v -2 0 8
v 0 0 8
v 6 0 8
v 8 0 8
v -2 0 5
v 0 0 5
v 6 0 5
v 8 0 5
v -2 0 -5
v 0 0 -5
v 6 0 -5
v 8 0 -5
v -2 0 -8
v 0 0 -8
v 6 0 -8
v 8 0 -8
v -2 1 9
v 0 1 9
v 6 1 9
v 8 1 9
v -2 1 8
v 0 1 8
v 6 1 8
v 8 1 8
v -2 1 5
v 0 1 5
v 6 1 5
v 8 1 5
v -2 1 4
v 0 1 4
v 6 1 4
v 8 1 4
v -2 1 -4
v 0 1 -4
v 6 1 -4
v 8 1 -4
v -2 1 -5
v 0 1 -5
v 6 1 -5
v 8 1 -5
v -2 1 -8
v 0 1 -8
v 6 1 -8
v 8 1 -8
v -2 1 -9
v 0 1 -9
v 6 1 -9
v 8 1 -9
v -2 2 10
v 0 2 10
v 6 2 10
v 8 2 10
v -2 2 9
v 0 2 9
v 6 2 9
v 8 2 9
v -2 2 4
v 0 2 4
v 6 2 4
v 8 2 4
v -2 2 3
v 0 2 3
v 6 2 3
v 8 2 3
v -2 2 -3
v 0 2 -3
v 6 2 -3
v 8 2 -3
v -2 2 -4
v 0 2 -4
v 6 2 -4
v 8 2 -4
v -2 2 -9
v 0 2 -9
v 6 2 -9
v 8 2 -9
v -2 2 -10
v 0 2 -10
v 6 2 -10
v 8 2 -10
v 5 4 -10
v 6 4 -10
v 5 4 -12
v 6 4 -12
v -3 5 13
v 1 5 13
v 5 5 13
v 9 5 13
v 1 5 12
v 5 5 12
v -2 5 11
v -1 5 11
v 7 5 11
v -2 5 10
v -1 5 10
v 0 5 10
v 6 5 10
v 7 5 10
v 8 5 10
v -2 5 3
v -1 5 3
v 0 5 3
v 6 5 3
v 8 5 3
v -2 5 -2
v -1 5 -2
v 8 5 -2
v -2 5 -3
v 0 5 -3
v 6 5 -3
v 8 5 -3
v 0 5 -4
v 6 5 -4
v 0 5 -5
v 6 5 -5
v -2 5 -10
v -1 5 -10
v 0 5 -10
v 5 5 -10
v 6 5 -10
v 8 5 -10
v -2 5 -11
v -1 5 -11
v 5 5 -11
v 6 5 -11
v 8 5 -11
v -3 5 -12
v 5 5 -12
v 6 5 -12
v 9 5 -12
v -3 9 13
v -2 9 13
v 8 9 13
v 9 9 13
v -3 9 12
v -2 9 12
v 8 9 12
v 9 9 12
v -5 11 3
v -3 11 3
v 9 11 3
v 11 11 3
v -5 11 2
v -3 11 2
v 9 11 2
v 11 11 2
v -5 11 1
v -3 11 1
v 9 11 1
v 11 11 1
v -3 6 13
v -2 6 13
v 8 6 13
v 9 6 13
v -3 6 12
v -2 6 12
v 8 6 12
v 9 6 12
v -3 6 -11
v -2 6 -11
v 8 6 -11
v 9 6 -11
v -3 6 -12
v -2 6 -12
v 8 6 -12
v 9 6 -12
v -3 10 11
v -2 10 11
v 8 10 11
v 9 10 11
v -3 10 4
v -2 10 4
v 8 10 4
v 9 10 4
v -3 11 13
v -1 11 13
v 7 11 13
v 9 11 13
v -2 11 12
v -1 11 12
v 7 11 12
v 8 11 12
v -3 11 11
v -2 11 11
v -1 11 11
v 7 11 11
v 8 11 11
v 9 11 11
v -1 11 5
v 7 11 5
v -2 11 4
v -1 11 4
v 7 11 4
v 8 11 4
v -3 12 4
v -1 12 4
v 7 12 4
v 9 12 4
v -3 12 3
v -2 12 3
v -1 12 3
v 7 12 3
v 8 12 3
v 9 12 3
v -5 13 3
v -3 13 3
v 9 13 3
v 11 13 3
v -5 13 2
v -3 13 2
v 9 13 2
v 11 13 2
v -5 13 1
v -3 13 1
v 9 13 1
v 11 13 1
v -3 19 3
v 9 19 3
v -2 19 2
v 8 19 2
v -3 19 -11
v -2 19 -11
v 8 19 -11
v 9 19 -11
v -2 19 -12
v 8 19 -12

# faces
f 4/7/1 2/7/1 1/7/1
f 5/1/1 3/1/1 2/1/1
f 5/7/1 2/7/1 4/7/1
f 6/1/1 3/1/1 5/1/1
f 9/4/1 8/4/1 7/4/1
f 10/4/1 8/4/1 9/4/1
f 11/4/1 8/4/1 10/4/1
f 12/4/1 8/4/1 11/4/1
f 13/4/1 8/4/1 12/4/1
f 14/4/1 8/4/1 13/4/1
f 15/4/1 8/4/1 14/4/1
f 16/4/1 8/4/1 15/4/1
f 17/4/1 8/4/1 16/4/1
f 19/2/1 11/2/1 10/2/1
f 20/4/1 12/4/1 11/4/1
f 20/2/1 11/2/1 19/2/1
f 21/1/1 19/1/1 18/1/1
f 21/4/1 20/4/1 19/4/1
f 22/4/1 20/4/1 21/4/1
f 23/4/1 20/4/1 22/4/1
f 24/2/1 13/2/1 12/2/1
f 25/4/1 14/4/1 13/4/1
f 25/2/1 13/2/1 24/2/1
f 26/2/1 15/2/1 14/2/1
f 27/4/1 16/4/1 15/4/1
f 27/2/1 15/2/1 26/2/1
f 28/1/1 21/1/1 18/1/1
f 28/1/1 22/1/1 21/1/1
f 29/1/1 22/1/1 28/1/1
f 30/4/1 12/4/1 20/4/1
f 30/4/1 20/4/1 23/4/1
f 31/2/1 24/2/1 12/2/1
f 31/4/1 12/4/1 30/4/1
f 32/2/1 24/2/1 31/2/1
f 33/7/1 25/7/1 24/7/1
f 33/2/1 24/2/1 32/2/1
f 34/4/1 14/4/1 25/4/1
f 34/7/1 25/7/1 33/7/1
f 35/2/1 26/2/1 14/2/1
f 35/4/1 14/4/1 34/4/1
f 36/7/1 27/7/1 26/7/1
f 36/2/1 26/2/1 35/2/1
f 37/4/1 16/4/1 27/4/1
f 37/7/1 27/7/1 36/7/1
f 38/4/1 30/4/1 23/4/1
f 39/4/1 30/4/1 38/4/1
f 40/4/1 34/4/1 33/4/1
f 40/4/1 37/4/1 36/4/1
f 40/4/1 33/4/1 32/4/1
f 40/4/1 35/4/1 34/4/1
f 40/4/1 36/4/1 35/4/1
f 41/4/1 37/4/1 40/4/1
f 42/4/1 37/4/1 41/4/1
f 43/4/1 16/4/1 37/4/1
f 43/4/1 37/4/1 42/4/1
f 46/6/1 41/6/1 40/6/1
f 47/4/1 45/4/1 44/4/1
f 47/6/1 46/6/1 45/6/1
f 48/4/1 42/4/1 41/4/1
f 48/6/1 46/6/1 47/6/1
f 48/6/1 41/6/1 46/6/1
f 49/6/1 43/6/1 42/6/1
f 49/4/1 42/4/1 48/4/1
f 50/4/1 16/4/1 43/4/1
f 50/6/1 43/6/1 49/6/1
f 51/4/1 49/4/1 48/4/1
f 51/4/1 47/4/1 44/4/1
f 51/4/1 50/4/1 49/4/1
f 51/4/1 48/4/1 47/4/1
f 52/4/1 16/4/1 50/4/1
f 52/4/1 50/4/1 51/4/1
f 58/7/1 54/7/1 53/7/1
f 59/7/1 54/7/1 58/7/1
f 62/7/1 56/7/1 55/7/1
f 63/7/1 56/7/1 62/7/1
f 66/7/1 60/7/1 59/7/1
f 66/7/1 58/7/1 57/7/1
f 66/7/1 59/7/1 58/7/1
f 67/7/1 60/7/1 66/7/1
f 70/7/1 64/7/1 63/7/1
f 70/7/1 63/7/1 62/7/1
f 70/7/1 62/7/1 61/7/1
f 71/7/1 64/7/1 70/7/1
f 73/7/1 68/7/1 67/7/1
f 73/7/1 67/7/1 66/7/1
f 73/7/1 66/7/1 65/7/1
f 74/7/1 68/7/1 73/7/1
f 75/7/1 72/7/1 71/7/1
f 75/7/1 71/7/1 70/7/1
f 75/7/1 70/7/1 69/7/1
f 76/7/1 72/7/1 75/7/1
f 77/5/1 74/5/1 73/5/1
f 77/7/1 73/7/1 65/7/1
f 78/7/1 68/7/1 74/7/1
f 78/5/1 74/5/1 77/5/1
f 79/5/1 76/5/1 75/5/1
f 79/7/1 75/7/1 69/7/1
f 80/7/1 72/7/1 76/7/1
f 80/5/1 76/5/1 79/5/1
f 81/7/1 77/7/1 65/7/1
f 81/7/1 78/7/1 77/7/1
f 82/7/1 68/7/1 78/7/1
f 82/7/1 78/7/1 81/7/1
f 83/7/1 79/7/1 69/7/1
f 83/7/1 80/7/1 79/7/1
f 84/7/1 72/7/1 80/7/1
f 84/7/1 80/7/1 83/7/1
f 89/2/1 86/2/1 85/2/1
f 90/2/1 86/2/1 89/2/1
f 91/4/1 88/4/1 87/4/1
f 92/4/1 88/4/1 91/4/1
f 95/4/1 94/4/1 93/4/1
f 96/4/1 94/4/1 95/4/1
f 97/1/1 92/1/1 91/1/1
f 98/1/1 92/1/1 97/1/1
f 99/4/1 98/4/1 97/4/1
f 100/4/1 98/4/1 99/4/1
f 103/7/1 102/7/1 101/7/1
f 104/7/1 102/7/1 103/7/1
f 105/7/1 102/7/1 104/7/1
f 111/7/1 107/7/1 106/7/1
f 112/7/1 107/7/1 111/7/1
f 115/7/1 109/7/1 108/7/1
f 116/7/1 109/7/1 115/7/1
f 119/7/1 113/7/1 112/7/1
f 119/7/1 111/7/1 110/7/1
f 119/7/1 112/7/1 111/7/1
f 120/7/1 113/7/1 119/7/1
f 123/7/1 117/7/1 116/7/1
f 123/7/1 116/7/1 115/7/1
f 123/7/1 115/7/1 114/7/1
f 124/7/1 117/7/1 123/7/1
f 126/7/1 121/7/1 120/7/1
f 126/7/1 120/7/1 119/7/1
f 126/7/1 119/7/1 118/7/1
f 127/7/1 121/7/1 126/7/1
f 128/7/1 125/7/1 124/7/1
f 128/7/1 124/7/1 123/7/1
f 128/7/1 123/7/1 122/7/1
f 129/7/1 125/7/1 128/7/1
f 130/9/1 127/9/1 126/9/1
f 130/7/1 126/7/1 118/7/1
f 131/7/1 121/7/1 127/7/1
f 131/9/1 127/9/1 130/9/1
f 132/9/1 129/9/1 128/9/1
f 132/7/1 128/7/1 122/7/1
f 133/7/1 125/7/1 129/7/1
f 133/9/1 129/9/1 132/9/1
f 134/7/1 125/7/1 133/7/1
f 135/7/1 130/7/1 118/7/1
f 135/7/1 131/7/1 130/7/1
f 136/7/1 121/7/1 131/7/1
f 136/7/1 131/7/1 135/7/1
f 137/7/1 132/7/1 122/7/1
f 137/7/1 134/7/1 133/7/1
f 137/7/1 133/7/1 132/7/1
f 138/7/1 134/7/1 137/7/1
f 139/7/1 134/7/1 138/7/1
f 140/7/1 134/7/1 139/7/1
f 141/7/2 142/7/2 146/7/2
f 146/7/2 142/7/2 147/7/2
f 143/7/2 144/7/2 150/7/2
f 150/7/2 144/7/2 151/7/2
f 147/7/2 148/7/2 154/7/2
f 145/7/2 146/7/2 154/7/2
f 146/7/2 147/7/2 154/7/2
f 154/7/2 148/7/2 155/7/2
f 151/7/2 152/7/2 158/7/2
f 150/7/2 151/7/2 158/7/2
f 149/7/2 150/7/2 158/7/2
f 158/7/2 152/7/2 159/7/2
f 155/7/2 156/7/2 161/7/2
f 154/7/2 155/7/2 161/7/2
f 153/7/2 154/7/2 161/7/2
f 161/7/2 156/7/2 162/7/2
f 159/7/2 160/7/2 163/7/2
f 158/7/2 159/7/2 163/7/2
f 157/7/2 158/7/2 163/7/2
f 163/7/2 160/7/2 164/7/2
f 161/9/2 162/9/2 165/9/2
f 153/7/2 161/7/2 165/7/2
f 162/7/2 156/7/2 166/7/2
f 165/9/2 162/9/2 166/9/2
f 163/9/2 164/9/2 167/9/2
f 157/7/2 163/7/2 167/7/2
f 164/7/2 160/7/2 168/7/2
f 167/9/2 164/9/2 168/9/2
f 153/7/2 165/7/2 169/7/2
f 165/7/2 166/7/2 169/7/2
f 166/7/2 156/7/2 170/7/2
f 169/7/2 166/7/2 170/7/2
f 157/7/2 167/7/2 171/7/2
f 167/7/2 168/7/2 171/7/2
f 171/7/2 168/7/2 172/7/2
f 172/7/2 168/7/2 173/7/2
f 168/7/2 160/7/2 174/7/2
f 173/7/2 168/7/2 174/7/2
f 175/7/2 176/7/2 177/7/2
f 177/7/2 176/7/2 178/7/2
f 178/7/2 176/7/2 179/7/2
f 180/7/2 181/7/2 185/7/2
f 185/7/2 181/7/2 186/7/2
f 182/7/2 183/7/2 189/7/2
f 189/7/2 183/7/2 190/7/2
f 186/7/2 187/7/2 193/7/2
f 184/7/2 185/7/2 193/7/2
f 185/7/2 186/7/2 193/7/2
f 193/7/2 187/7/2 194/7/2
f 190/7/2 191/7/2 197/7/2
f 189/7/2 190/7/2 197/7/2
f 188/7/2 189/7/2 197/7/2
f 197/7/2 191/7/2 198/7/2
f 194/7/2 195/7/2 200/7/2
f 193/7/2 194/7/2 200/7/2
f 192/7/2 193/7/2 200/7/2
f 200/7/2 195/7/2 201/7/2
f 198/7/2 199/7/2 202/7/2
f 197/7/2 198/7/2 202/7/2
f 196/7/2 197/7/2 202/7/2
f 202/7/2 199/7/2 203/7/2
f 200/5/2 201/5/2 204/5/2
f 192/7/2 200/7/2 204/7/2
f 201/7/2 195/7/2 205/7/2
f 204/5/2 201/5/2 205/5/2
f 202/5/2 203/5/2 206/5/2
f 196/7/2 202/7/2 206/7/2
f 203/7/2 199/7/2 207/7/2
f 206/5/2 203/5/2 207/5/2
f 192/7/2 204/7/2 208/7/2
f 204/7/2 205/7/2 208/7/2
f 205/7/2 195/7/2 209/7/2
f 208/7/2 205/7/2 209/7/2
f 196/7/2 206/7/2 210/7/2
f 206/7/2 207/7/2 210/7/2
f 207/7/2 199/7/2 211/7/2
f 210/7/2 207/7/2 211/7/2
f 212/2/2 213/2/2 216/2/2
f 216/2/2 213/2/2 217/2/2
f 214/4/2 215/4/2 218/4/2
f 218/4/2 215/4/2 219/4/2
f 220/4/2 221/4/2 222/4/2
f 222/4/2 221/4/2 223/4/2
f 218/1/2 219/1/2 224/1/2
f 224/1/2 219/1/2 225/1/2
f 224/4/2 225/4/2 226/4/2
f 226/4/2 225/4/2 227/4/2
f 228/4/2 229/4/2 230/4/2
f 230/4/2 229/4/2 231/4/2
f 231/4/2 229/4/2 232/4/2
f 232/4/2 229/4/2 233/4/2
f 233/4/2 229/4/2 234/4/2
f 234/4/2 229/4/2 235/4/2
f 235/4/2 229/4/2 236/4/2
f 236/4/2 229/4/2 237/4/2
f 237/4/2 229/4/2 238/4/2
f 231/2/2 232/2/2 240/2/2
f 240/2/2 232/2/2 241/2/2
f 232/4/2 233/4/2 242/4/2
f 241/2/2 232/2/2 242/2/2
f 240/1/2 241/1/2 243/1/2
f 239/1/2 240/1/2 243/1/2
f 241/4/2 242/4/2 243/4/2
f 242/4/2 233/4/2 244/4/2
f 243/4/2 242/4/2 244/4/2
f 233/2/2 234/2/2 245/2/2
f 234/4/2 235/4/2 246/4/2
f 245/2/2 234/2/2 246/2/2
f 235/2/2 236/2/2 247/2/2
f 236/4/2 237/4/2 248/4/2
f 247/2/2 236/2/2 248/2/2
f 239/1/2 243/1/2 249/1/2
f 249/1/2 243/1/2 250/1/2
f 244/4/2 233/4/2 251/4/2
f 233/2/2 245/2/2 251/2/2
f 251/2/2 245/2/2 252/2/2
f 252/2/2 245/2/2 253/2/2
f 245/7/2 246/7/2 254/7/2
f 253/2/2 245/2/2 254/2/2
f 246/4/2 235/4/2 255/4/2
f 254/7/2 246/7/2 255/7/2
f 235/2/2 247/2/2 256/2/2
f 255/4/2 235/4/2 256/4/2
f 247/7/2 248/7/2 257/7/2
f 256/2/2 247/2/2 257/2/2
f 248/4/2 237/4/2 258/4/2
f 257/7/2 248/7/2 258/7/2
f 244/4/2 251/4/2 259/4/2
f 259/4/2 251/4/2 260/4/2
f 254/4/2 255/4/2 261/4/2
f 256/4/2 257/4/2 261/4/2
f 253/4/2 254/4/2 261/4/2
f 257/4/2 258/4/2 261/4/2
f 255/4/2 256/4/2 261/4/2
f 261/4/2 258/4/2 262/4/2
f 262/4/2 258/4/2 263/4/2
f 258/4/2 237/4/2 264/4/2
f 263/4/2 258/4/2 264/4/2
f 261/6/2 262/6/2 267/6/2
f 265/4/2 266/4/2 268/4/2
f 266/6/2 267/6/2 268/6/2
f 262/4/2 263/4/2 269/4/2
f 268/6/2 267/6/2 269/6/2
f 267/6/2 262/6/2 269/6/2
f 263/6/2 264/6/2 270/6/2
f 269/4/2 263/4/2 270/4/2
f 264/4/2 237/4/2 271/4/2
f 270/6/2 264/6/2 271/6/2
f 269/4/2 270/4/2 272/4/2
f 265/4/2 268/4/2 272/4/2
f 270/4/2 271/4/2 272/4/2
f 268/4/2 269/4/2 272/4/2
f 271/4/2 237/4/2 273/4/2
f 272/4/2 271/4/2 273/4/2
f 274/7/2 275/7/2 277/7/2
f 275/1/2 276/1/2 278/1/2
f 277/7/2 275/7/2 278/7/2
f 278/1/2 276/1/2 279/1/2
f 284/4/3 281/4/3 280/4/3
f 285/1/3 283/1/3 282/1/3
f 286/1/3 283/1/3 285/1/3
f 287/2/3 285/2/3 284/2/3
f 287/1/3 283/1/3 286/1/3
f 287/2/3 286/2/3 285/2/3
f 288/1/3 283/1/3 287/1/3
f 289/4/3 284/4/3 280/4/3
f 290/2/3 287/2/3 284/2/3
f 290/4/3 284/4/3 289/4/3
f 291/6/3 290/6/3 289/6/3
f 292/2/3 287/2/3 290/2/3
f 292/6/3 290/6/3 291/6/3
f 293/4/3 288/4/3 287/4/3
f 293/2/3 287/2/3 292/2/3
f 294/4/3 288/4/3 293/4/3
f 295/4/3 292/4/3 291/4/3
f 295/2/3 293/2/3 292/2/3
f 296/2/3 293/2/3 295/2/3
f 297/1/3 294/1/3 293/1/3
f 297/2/3 293/2/3 296/2/3
f 298/4/3 295/4/3 291/4/3
f 299/4/3 295/4/3 298/4/3
f 300/1/3 297/1/3 296/1/3
f 301/1/3 294/1/3 297/1/3
f 301/1/3 297/1/3 300/1/3
f 304/2/3 303/2/3 302/2/3
f 305/2/3 303/2/3 304/2/3
f 308/2/3 307/2/3 306/2/3
f 309/2/3 307/2/3 308/2/3
f 312/7/3 311/7/3 310/7/3
f 313/7/3 312/7/3 310/7/3
f 314/7/3 312/7/3 313/7/3
f 317/7/3 316/7/3 315/7/3
f 318/7/3 317/7/3 315/7/3
f 319/7/3 317/7/3 318/7/3
f 322/7/3 321/7/3 320/7/3
f 323/7/3 321/7/3 322/7/3
f 326/7/3 325/7/3 324/7/3
f 327/7/3 325/7/3 326/7/3
f 330/7/3 329/7/3 328/7/3
f 331/7/3 329/7/3 330/7/3
f 334/7/3 333/7/3 332/7/3
f 335/7/3 333/7/3 334/7/3
f 338/4/3 337/4/3 336/4/3
f 339/4/3 337/4/3 338/4/3
f 340/4/3 337/4/3 339/4/3
f 341/4/3 337/4/3 340/4/3
f 342/6/3 341/6/3 340/6/3
f 343/6/3 341/6/3 342/6/3
f 345/4/3 343/4/3 342/4/3
f 346/4/3 345/4/3 344/4/3
f 347/4/3 343/4/3 345/4/3
f 347/4/3 345/4/3 346/4/3
f 350/7/3 349/7/3 348/7/3
f 351/7/3 349/7/3 350/7/3
f 352/7/3 349/7/3 351/7/3
f 354/4/3 353/4/3 352/4/3
f 354/4/3 352/4/3 351/4/3
f 355/4/3 353/4/3 354/4/3
f 356/6/3 355/6/3 354/6/3
f 357/6/3 355/6/3 356/6/3
f 358/6/3 355/6/3 357/6/3
f 359/4/3 353/4/3 355/4/3
f 359/6/3 355/6/3 358/6/3
f 361/4/3 359/4/3 358/4/3
f 362/4/3 359/4/3 361/4/3
f 363/4/3 353/4/3 359/4/3
f 363/4/3 359/4/3 362/4/3
f 364/7/3 362/7/3 361/7/3
f 364/7/3 361/7/3 360/7/3
f 365/7/3 362/7/3 364/7/3
f 368/7/3 367/7/3 366/7/3
f 369/7/3 367/7/3 368/7/3
f 372/7/3 371/7/3 370/7/3
f 373/7/3 371/7/3 372/7/3
f 376/7/3 375/7/3 374/7/3
f 377/7/3 375/7/3 376/7/3
f 380/7/3 379/7/3 378/7/3
f 381/7/3 379/7/3 380/7/3
f 384/7/3 383/7/3 382/7/3
f 385/7/3 383/7/3 384/7/3
f 388/7/3 387/7/3 386/7/3
f 389/7/3 387/7/3 388/7/3
f 392/7/3 391/7/3 390/7/3
f 393/7/3 391/7/3 392/7/3
f 394/1/4 395/1/4 396/1/4
f 396/1/4 395/1/4 397/1/4
f 398/1/4 399/1/4 400/1/4
f 400/1/4 399/1/4 401/1/4
f 402/7/4 403/7/4 404/7/4
f 404/7/4 403/7/4 405/7/4
f 406/7/4 407/7/4 408/7/4
f 408/7/4 407/7/4 409/7/4
f 410/7/4 411/7/4 412/7/4
f 412/7/4 411/7/4 413/7/4
f 414/7/4 415/7/4 416/7/4
f 416/7/4 415/7/4 417/7/4
f 418/7/4 419/7/4 420/7/4
f 418/7/4 420/7/4 421/7/4
f 421/7/4 420/7/4 422/7/4
f 423/7/4 424/7/4 425/7/4
f 425/7/4 424/7/4 426/7/4
f 427/1/4 428/1/4 429/1/4
f 429/1/4 428/1/4 430/1/4
f 430/1/4 428/1/4 431/1/4
f 432/1/4 433/1/4 435/1/4
f 433/1/4 434/1/4 435/1/4
f 435/1/4 434/1/4 436/1/4
f 437/7/4 438/7/4 439/7/4
f 439/7/4 438/7/4 440/7/4
f 441/7/4 442/7/4 443/7/4
f 443/7/4 442/7/4 444/7/4
f 445/7/4 446/7/4 447/7/4
f 447/7/4 446/7/4 448/7/4
f 449/7/4 450/7/4 451/7/4
f 451/7/4 450/7/4 452/7/4
f 453/7/4 454/7/4 455/7/4
f 453/7/4 455/7/4 456/7/4
f 456/7/4 455/7/4 457/7/4
f 458/7/4 459/7/4 461/7/4
f 459/7/4 460/7/4 461/7/4
f 461/7/4 460/7/4 462/7/4
f 463/4/4 464/4/4 465/4/4
f 465/4/4 464/4/4 466/4/4
f 466/4/4 464/4/4 467/4/4
f 467/4/4 464/4/4 468/4/4
f 469/4/4 470/4/4 473/4/4
f 471/4/4 472/4/4 473/4/4
f 470/4/4 471/4/4 473/4/4
f 473/4/4 472/4/4 474/4/4
f 475/4/4 476/4/4 477/4/4
f 475/4/4 477/4/4 481/4/4
f 477/4/4 478/4/4 481/4/4
f 478/1/4 479/1/4 482/1/4
f 481/4/4 478/4/4 482/4/4
f 479/4/4 480/4/4 483/4/4
f 482/1/4 479/1/4 483/1/4
f 483/4/4 480/4/4 484/4/4
f 484/4/4 480/4/4 485/4/4
f 481/2/4 482/2/4 486/2/4
f 475/4/4 481/4/4 486/4/4
f 482/2/4 483/2/4 486/2/4
f 486/2/4 483/2/4 487/2/4
f 487/2/4 483/2/4 488/2/4
f 483/4/4 484/4/4 489/4/4
f 488/2/4 483/2/4 489/2/4
f 487/2/4 488/2/4 490/2/4
f 488/7/4 489/7/4 490/7/4
f 489/4/4 484/4/4 491/4/4
f 490/7/4 489/7/4 491/7/4
f 475/4/4 486/4/4 493/4/4
f 486/6/4 487/6/4 494/6/4
f 493/4/4 486/4/4 494/4/4
f 487/2/4 490/2/4 495/2/4
f 494/6/4 487/6/4 495/6/4
f 490/2/4 491/2/4 495/2/4
f 492/7/4 493/7/4 496/7/4
f 493/4/4 494/4/4 497/4/4
f 496/7/4 493/7/4 497/7/4
f 494/2/4 495/2/4 498/2/4
f 497/4/4 494/4/4 498/4/4
f 495/2/4 491/2/4 499/2/4
f 498/2/4 495/2/4 499/2/4
f 491/4/4 484/4/4 500/4/4
f 499/2/4 491/2/4 500/2/4
f 484/6/4 485/6/4 501/6/4
f 500/4/4 484/4/4 501/4/4
f 485/4/4 480/4/4 502/4/4
f 501/6/4 485/6/4 502/6/4
f 498/4/4 499/4/4 503/4/4
f 497/4/4 498/4/4 503/4/4
f 499/1/4 500/1/4 504/1/4
f 503/4/4 499/4/4 504/4/4
f 500/4/4 501/4/4 505/4/4
f 504/1/4 500/1/4 505/1/4
f 501/4/4 502/4/4 505/4/4
f 502/4/4 480/4/4 506/4/4
f 505/4/4 502/4/4 506/4/4
f 497/4/4 503/4/4 507/4/4
f 507/4/4 503/4/4 508/4/4
f 513/7/5 510/7/5 509/7/5
f 514/7/5 510/7/5 513/7/5
f 515/7/5 512/7/5 511/7/5
f 516/7/5 512/7/5 515/7/5
f 521/7/5 518/7/5 517/7/5
f 522/7/5 518/7/5 521/7/5
f 523/7/5 520/7/5 519/7/5
f 524/7/5 520/7/5 523/7/5
f 529/7/5 526/7/5 525/7/5
f 530/7/5 526/7/5 529/7/5
f 531/7/5 528/7/5 527/7/5
f 532/7/5 528/7/5 531/7/5
f 537/7/5 534/7/5 533/7/5
f 538/7/5 534/7/5 537/7/5
f 539/7/5 536/7/5 535/7/5
f 540/7/5 536/7/5 539/7/5
f 545/7/5 542/7/5 541/7/5
f 546/7/5 542/7/5 545/7/5
f 547/7/5 544/7/5 543/7/5
f 548/7/5 544/7/5 547/7/5
f 553/7/5 550/7/5 549/7/5
f 554/7/5 550/7/5 553/7/5
f 555/7/5 552/7/5 551/7/5
f 556/7/5 552/7/5 555/7/5
f 561/7/5 558/7/5 557/7/5
f 562/7/5 558/7/5 561/7/5
f 563/7/5 560/7/5 559/7/5
f 564/7/5 560/7/5 563/7/5
f 569/7/5 566/7/5 565/7/5
f 570/7/5 566/7/5 569/7/5
f 571/7/5 568/7/5 567/7/5
f 572/7/5 568/7/5 571/7/5
f 577/7/5 574/7/5 573/7/5
f 578/7/5 574/7/5 577/7/5
f 579/7/5 576/7/5 575/7/5
f 580/7/5 576/7/5 579/7/5
f 585/7/5 582/7/5 581/7/5
f 586/7/5 582/7/5 585/7/5
f 587/7/5 584/7/5 583/7/5
f 588/7/5 584/7/5 587/7/5
f 591/7/5 590/7/5 589/7/5
f 592/7/5 590/7/5 591/7/5
f 597/4/5 594/4/5 593/4/5
f 597/6/5 595/6/5 594/6/5
f 598/4/5 596/4/5 595/4/5
f 598/6/5 595/6/5 597/6/5
f 599/4/5 597/4/5 593/4/5
f 599/4/5 598/4/5 597/4/5
f 600/4/5 598/4/5 599/4/5
f 601/4/5 596/4/5 598/4/5
f 601/4/5 598/4/5 600/4/5
f 602/7/5 600/7/5 599/7/5
f 602/4/5 599/4/5 593/4/5
f 603/8/5 601/8/5 600/8/5
f 603/7/5 600/7/5 602/7/5
f 604/8/5 601/8/5 603/8/5
f 605/8/5 601/8/5 604/8/5
f 606/4/5 596/4/5 601/4/5
f 606/8/5 601/8/5 605/8/5
f 607/4/5 596/4/5 606/4/5
f 608/4/5 602/4/5 593/4/5
f 610/8/5 605/8/5 604/8/5
f 611/8/5 605/8/5 610/8/5
f 612/4/5 596/4/5 607/4/5
f 613/7/5 609/7/5 608/7/5
f 613/4/5 608/4/5 593/4/5
f 614/8/5 612/8/5 611/8/5
f 614/7/5 609/7/5 613/7/5
f 614/8/5 611/8/5 610/8/5
f 614/8/5 610/8/5 609/8/5
f 615/4/5 596/4/5 612/4/5
f 615/8/5 612/8/5 614/8/5
f 616/4/5 613/4/5 593/4/5
f 616/4/5 614/4/5 613/4/5
f 616/4/5 615/4/5 614/4/5
f 617/4/5 615/4/5 616/4/5
f 618/4/5 615/4/5 617/4/5
f 619/4/5 596/4/5 615/4/5
f 619/4/5 615/4/5 618/4/5
f 620/8/5 618/8/5 617/8/5
f 621/8/5 618/8/5 620/8/5
f 622/4/5 621/4/5 620/4/5
f 623/4/5 621/4/5 622/4/5
f 624/4/5 616/4/5 593/4/5
f 626/8/5 623/8/5 622/8/5
f 627/8/5 623/8/5 626/8/5
f 628/8/5 623/8/5 627/8/5
f 629/4/5 596/4/5 619/4/5
f 630/7/5 625/7/5 624/7/5
f 630/4/5 624/4/5 593/4/5
f 631/8/5 627/8/5 626/8/5
f 631/7/5 625/7/5 630/7/5
f 631/8/5 626/8/5 625/8/5
f 632/8/5 627/8/5 631/8/5
f 633/7/5 629/7/5 628/7/5
f 634/4/5 596/4/5 629/4/5
f 634/7/5 629/7/5 633/7/5
f 635/4/5 632/4/5 631/4/5
f 635/4/5 630/4/5 593/4/5
f 635/4/5 631/4/5 630/4/5
f 636/4/5 632/4/5 635/4/5
f 637/4/5 634/4/5 633/4/5
f 638/4/5 596/4/5 634/4/5
f 638/4/5 634/4/5 637/4/5
f 643/1/5 640/1/5 639/1/5
f 644/1/5 640/1/5 643/1/5
f 645/1/5 642/1/5 641/1/5
f 646/1/5 642/1/5 645/1/5
f 651/7/5 648/7/5 647/7/5
f 652/7/5 648/7/5 651/7/5
f 653/7/5 650/7/5 649/7/5
f 654/7/5 650/7/5 653/7/5
f 655/1/5 652/1/5 651/1/5
f 656/1/5 652/1/5 655/1/5
f 657/1/5 654/1/5 653/1/5
f 658/1/5 654/1/5 657/1/5
f 659/4/6 660/4/6 663/4/6
f 663/4/6 660/4/6 664/4/6
f 661/4/6 662/4/6 665/4/6
f 665/4/6 662/4/6 666/4/6
f 667/4/6 668/4/6 671/4/6
f 671/4/6 668/4/6 672/4/6
f 669/4/6 670/4/6 673/4/6
f 673/4/6 670/4/6 674/4/6
f 675/4/6 676/4/6 679/4/6
f 679/4/6 676/4/6 680/4/6
f 677/4/6 678/4/6 681/4/6
f 681/4/6 678/4/6 682/4/6
f 683/1/6 684/1/6 687/1/6
f 684/4/6 685/4/6 688/4/6
f 687/1/6 684/1/6 688/1/6
f 685/1/6 686/1/6 689/1/6
f 688/4/6 685/4/6 689/4/6
f 689/1/6 686/1/6 690/1/6
f 683/1/6 687/1/6 691/1/6
f 687/4/6 688/4/6 692/4/6
f 691/1/6 687/1/6 692/1/6
f 688/4/6 689/4/6 692/4/6
f 689/4/6 690/4/6 692/4/6
f 692/4/6 690/4/6 693/4/6
f 693/4/6 690/4/6 694/4/6
f 690/1/6 686/1/6 695/1/6
f 694/4/6 690/4/6 695/4/6
f 695/1/6 686/1/6 696/1/6
f 693/2/6 694/2/6 697/2/6
f 692/4/6 693/4/6 697/4/6
f 694/4/6 695/4/6 698/4/6
f 697/2/6 694/2/6 698/2/6
f 692/4/6 697/4/6 699/4/6
f 697/4/6 698/4/6 699/4/6
f 699/4/6 698/4/6 700/4/6
f 698/4/6 695/4/6 701/4/6
f 700/4/6 698/4/6 701/4/6
f 701/4/6 695/4/6 702/4/6
f 703/4/6 704/4/6 707/4/6
f 707/4/6 704/4/6 708/4/6
f 704/6/6 705/6/6 709/6/6
f 708/4/6 704/4/6 709/4/6
f 705/4/6 706/4/6 710/4/6
f 709/6/6 705/6/6 710/6/6
f 710/4/6 706/4/6 711/4/6
f 711/4/6 706/4/6 712/4/6
f 713/7/6 714/7/6 717/7/6
f 717/7/6 714/7/6 718/7/6
f 715/7/6 716/7/6 719/7/6
f 719/7/6 716/7/6 720/7/6
f 717/1/6 718/1/6 721/1/6
f 721/1/6 718/1/6 722/1/6
f 719/1/6 720/1/6 723/1/6
f 723/1/6 720/1/6 724/1/6
f 725/4/6 726/4/6 727/4/6
f 727/4/6 726/4/6 728/4/6
f 725/4/6 727/4/6 729/4/6
f 727/2/6 728/2/6 730/2/6
f 729/4/6 727/4/6 730/4/6
f 728/4/6 726/4/6 731/4/6
f 730/2/6 728/2/6 731/2/6
f 731/4/6 726/4/6 732/4/6
f 730/4/6 731/4/6 733/4/6
f 733/4/6 731/4/6 734/4/6
